<svg width="128" height="128" viewBox="0 0 128 128" fill="none" xmlns="http://www.w3.org/2000/svg">
<rect x="3" y="3" width="122" height="122" rx="61" stroke="white" stroke-width="6"/>
<path d="M27.832 90H22.0664V36.7031H27.832V90ZM38.6602 88.6992V79.207C42.1055 81.3164 45.7734 82.3711 49.6641 82.3711C52.5938 82.3711 54.8789 81.6797 56.5195 80.2969C58.1836 78.8906 59.0156 76.9922 59.0156 74.6016C59.0156 69.6094 55.4883 67.1133 48.4336 67.1133C45.832 67.1133 42.832 67.3125 39.4336 67.7109L41.332 39.5859H68.0156V48.6562H49.8047L49.1016 58.7461C50.9062 58.6055 52.4648 58.5352 53.7773 58.5352C58.957 58.5352 63.0117 59.8945 65.9414 62.6133C68.8711 65.332 70.3359 68.9883 70.3359 73.582C70.3359 78.668 68.5898 82.8281 65.0977 86.0625C61.6055 89.2734 56.8711 90.8789 50.8945 90.8789C46.043 90.8789 41.9648 90.1523 38.6602 88.6992ZM109.852 73.4414H84.4336C84.5273 77.4492 85.6055 80.543 87.668 82.7227C89.7305 84.9023 92.5664 85.9922 96.1758 85.9922C100.23 85.9922 103.957 84.6562 107.355 81.9844V87.3984C104.191 89.6953 100.008 90.8438 94.8047 90.8438C89.7188 90.8438 85.7227 89.2148 82.8164 85.957C79.9102 82.6758 78.457 78.0703 78.457 72.1406C78.457 66.5391 80.0391 61.9805 83.2031 58.4648C86.3906 54.9258 90.3398 53.1562 95.0508 53.1562C99.7617 53.1562 103.406 54.6797 105.984 57.7266C108.562 60.7734 109.852 65.0039 109.852 70.418V73.4414ZM103.945 68.5547C103.922 65.2266 103.113 62.6367 101.52 60.7852C99.9492 58.9336 97.7578 58.0078 94.9453 58.0078C92.2266 58.0078 89.918 58.9805 88.0195 60.9258C86.1211 62.8711 84.9492 65.4141 84.5039 68.5547H103.945Z" fill="white"/>
</svg>
